<svg width="10" height="10" viewBox="0 0 10 10" fill="none" xmlns="http://www.w3.org/2000/svg">
<path fill-rule="evenodd" clip-rule="evenodd" d="M2.58191 9.37745C3.29854 9.77416 4.1229 10 5 10C7.76142 10 10 7.76142 10 5C10 4.4582 9.91382 3.93653 9.75443 3.44794L7.67383 7.05165C7.46672 7.41037 7.00803 7.53328 6.64931 7.32617C6.57337 7.28233 6.50799 7.22721 6.45408 7.16414C6.3865 7.10855 6.32758 7.04011 6.28125 6.95986L5.12948 4.96493L2.58191 9.37745ZM4.48533 3.09055C4.54888 2.98196 4.64065 2.8879 4.75741 2.82049C5.11613 2.61338 5.57482 2.73629 5.78193 3.095L7.00404 5.21176L8.91911 1.89476C8.00322 0.740362 6.58807 0 5 0C2.23858 0 0 2.23858 0 5C0 6.33914 0.526448 7.55531 1.38367 8.45286L4.43768 3.16317C4.45234 3.13777 4.46827 3.11355 4.48533 3.09055Z" fill="#0B0B0B"/>
</svg>
