<svg width="12" height="12" viewBox="0 0 12 12" fill="none" xmlns="http://www.w3.org/2000/svg">
<path fill-rule="evenodd" clip-rule="evenodd" d="M9.7649 1.32795C8.73542 0.497318 7.42579 0 6 0C2.68629 0 0 2.68629 0 6C0 7.10507 0.298748 8.14036 0.819885 9.02952L3.98973 3.53919C4.23826 3.10873 4.78869 2.96124 5.21915 3.20977C5.30886 3.26156 5.38628 3.32646 5.45039 3.40066C5.53304 3.46791 5.60505 3.55108 5.6615 3.64884L7.04321 6.04205L9.7649 1.32795ZM7.81944 8.28712C7.74309 8.4195 7.63196 8.53419 7.4901 8.61609C7.05964 8.86461 6.50921 8.71713 6.26068 8.28666L4.79396 5.74623L2.04327 10.5106C3.09946 11.4378 4.48408 12 6 12C9.31371 12 12 9.31371 12 6C12 4.79461 11.6445 3.67223 11.0327 2.73198L7.87277 8.2052C7.85628 8.23377 7.83846 8.26109 7.81944 8.28712Z" fill="white"/>
</svg>
