<svg width="10" height="10" viewBox="0 0 10 10" fill="none" xmlns="http://www.w3.org/2000/svg">
<path fill-rule="evenodd" clip-rule="evenodd" d="M6.62771 0.270924C6.60918 0.295466 6.59195 0.321418 6.57617 0.348738L3.87052 5.03507L2.71875 3.04014C2.67242 2.95989 2.6135 2.89145 2.54592 2.83586C2.49201 2.77279 2.42663 2.71767 2.35069 2.67383C1.99197 2.46672 1.53328 2.58963 1.32617 2.94835L0.00546561 5.23588C0.00183529 5.15771 0 5.07907 0 5C0 2.23858 2.23858 0 5 0C5.56986 0 6.11746 0.0953341 6.62771 0.270924ZM7.93937 0.954804C7.9234 1.00395 7.90209 1.05219 7.87521 1.09874L4.56232 6.83683C4.54766 6.86223 4.53173 6.88645 4.51467 6.90945C4.45112 7.01804 4.35935 7.1121 4.24259 7.17951C3.88387 7.38662 3.42518 7.26372 3.21807 6.905L1.99596 4.78824L0.552886 7.28772C1.3832 8.89851 3.06296 10 5 10C7.76142 10 10 7.76142 10 5C10 3.33712 9.18824 1.86383 7.93937 0.954804Z" fill="#0B0B0B"/>
</svg>
